<svg width="23" height="25" viewBox="0 0 23 25" fill="none" xmlns="http://www.w3.org/2000/svg">
<path d="M21.8516 7.8125C22.1738 7.8125 22.4375 7.54883 22.4375 7.22656V5.27344C22.4375 4.95117 22.1738 4.6875 21.8516 4.6875H20.875V2.34375C20.875 1.0498 19.8252 0 18.5312 0H2.90625C1.6123 0 0.5625 1.0498 0.5625 2.34375V22.6562C0.5625 23.9502 1.6123 25 2.90625 25H18.5312C19.8252 25 20.875 23.9502 20.875 22.6562V20.3125H21.8516C22.1738 20.3125 22.4375 20.0488 22.4375 19.7266V17.7734C22.4375 17.4512 22.1738 17.1875 21.8516 17.1875H20.875V14.0625H21.8516C22.1738 14.0625 22.4375 13.7988 22.4375 13.4766V11.5234C22.4375 11.2012 22.1738 10.9375 21.8516 10.9375H20.875V7.8125H21.8516ZM10.7188 6.25C12.4424 6.25 13.8438 7.65137 13.8438 9.375C13.8438 11.0986 12.4424 12.5 10.7188 12.5C8.99512 12.5 7.59375 11.0986 7.59375 9.375C7.59375 7.65137 8.99512 6.25 10.7188 6.25ZM16.1875 17.8125C16.1875 18.3301 15.6992 18.75 15.0938 18.75H6.34375C5.73828 18.75 5.25 18.3301 5.25 17.8125V16.875C5.25 15.3223 6.71973 14.0625 8.53125 14.0625H8.77539C9.37598 14.3115 10.0303 14.4531 10.7188 14.4531C11.4072 14.4531 12.0664 14.3115 12.6621 14.0625H12.9063C14.7178 14.0625 16.1875 15.3223 16.1875 16.875V17.8125Z" fill="#0ACF83" fill-opacity="0.7"/>
</svg>
