<svg width="20" height="26" viewBox="0 0 20 26" fill="none" xmlns="http://www.w3.org/2000/svg">
<path d="M8.87441 25.4311C1.77979 15.146 0.462891 14.0904 0.462891 10.3105C0.462891 5.13282 4.66021 0.935501 9.83789 0.935501C15.0156 0.935501 19.2129 5.13282 19.2129 10.3105C19.2129 14.0904 17.896 15.146 10.8014 25.4311C10.3358 26.1037 9.33994 26.1036 8.87441 25.4311ZM9.83789 14.2168C11.9953 14.2168 13.7441 12.4679 13.7441 10.3105C13.7441 8.15313 11.9953 6.40425 9.83789 6.40425C7.68052 6.40425 5.93164 8.15313 5.93164 10.3105C5.93164 12.4679 7.68052 14.2168 9.83789 14.2168Z" fill="white"/>
</svg>
